<svg width="31" height="41" viewBox="0 0 31 41" fill="none" xmlns="http://www.w3.org/2000/svg">
<path d="M22.5312 34.4125C22.1584 34.4122 21.8009 34.2638 21.5375 34C21.4098 33.8633 21.3081 33.7045 21.2375 33.5313C21.1626 33.3664 21.1242 33.1873 21.125 33.0063C21.123 32.8213 21.1586 32.6379 21.2295 32.4671C21.3004 32.2963 21.4051 32.1417 21.5375 32.0125C21.6667 31.8797 21.8193 31.7716 21.9875 31.6937C22.2475 31.5952 22.5303 31.5728 22.8026 31.6293C23.0749 31.6857 23.3255 31.8187 23.525 32.0125C23.6573 32.1417 23.762 32.2963 23.8329 32.4671C23.9038 32.6379 23.9394 32.8213 23.9375 33.0063C23.9382 33.1873 23.8999 33.3664 23.825 33.5313C23.7543 33.7045 23.6526 33.8633 23.525 34C23.2615 34.2638 22.904 34.4122 22.5312 34.4125Z" fill="#FEFEFE"/>
<path d="M22.5311 28.3188C22.1582 28.3188 21.8005 28.1706 21.5368 27.9069C21.273 27.6432 21.1249 27.2855 21.1249 26.9125C21.1243 26.7254 21.1626 26.5403 21.2374 26.3688C21.3035 26.1988 21.4059 26.0452 21.5374 25.9188C21.8056 25.6642 22.1613 25.5223 22.5311 25.5223C22.9009 25.5223 23.2566 25.6642 23.5249 25.9188C23.6564 26.0452 23.7587 26.1988 23.8249 26.3688C23.8997 26.5403 23.938 26.7254 23.9374 26.9125C23.9359 27.0933 23.8977 27.272 23.8249 27.4375C23.7585 27.6129 23.6564 27.7725 23.5249 27.9063C23.2614 28.1701 22.904 28.3184 22.5311 28.3188Z" fill="#FEFEFE"/>
<path d="M25.5499 40.6563H5.44995C4.23161 40.6563 3.06317 40.1723 2.20168 39.3108C1.34018 38.4493 0.856201 37.2808 0.856201 36.0625V4.9375C0.856201 3.71916 1.34018 2.55072 2.20168 1.68923C3.06317 0.827733 4.23161 0.34375 5.44995 0.34375H25.5499C26.7683 0.34375 27.9367 0.827733 28.7982 1.68923C29.6597 2.55072 30.1437 3.71916 30.1437 4.9375V36.0625C30.1437 37.2808 29.6597 38.4493 28.7982 39.3108C27.9367 40.1723 26.7683 40.6563 25.5499 40.6563ZM5.44995 3.15625C4.9691 3.18032 4.51593 3.38844 4.18433 3.7375C3.85272 4.08656 3.6681 4.54979 3.6687 5.03125V36.0625C3.69143 36.5276 3.88639 36.9676 4.21564 37.2968C4.54489 37.6261 4.98487 37.821 5.44995 37.8438H25.5499C26.015 37.821 26.455 37.6261 26.7843 37.2968C27.1135 36.9676 27.3085 36.5276 27.3312 36.0625V4.9375C27.3318 4.45604 27.1472 3.99281 26.8156 3.64375C26.484 3.29469 26.0308 3.08657 25.5499 3.0625L5.44995 3.15625Z" fill="#FEFEFE"/>
<path d="M11.5249 34.4125C11.1519 34.4125 10.7943 34.2643 10.5305 34.0006C10.2668 33.7369 10.1187 33.3792 10.1187 33.0062V26.9125C10.1187 26.5395 10.2668 26.1819 10.5305 25.9181C10.7943 25.6544 11.1519 25.5062 11.5249 25.5062C11.8979 25.5062 12.2555 25.6544 12.5193 25.9181C12.783 26.1819 12.9312 26.5395 12.9312 26.9125V33.0062C12.9263 33.3777 12.7766 33.7326 12.5139 33.9952C12.2512 34.2579 11.8964 34.4076 11.5249 34.4125Z" fill="#FEFEFE"/>
<path d="M14.5625 31.3563H8.46875C8.09579 31.3563 7.7381 31.2081 7.47438 30.9444C7.21066 30.6807 7.0625 30.323 7.0625 29.95C7.0625 29.577 7.21066 29.2194 7.47438 28.9556C7.7381 28.6919 8.09579 28.5438 8.46875 28.5438H14.5625C14.9355 28.5438 15.2931 28.6919 15.5569 28.9556C15.8206 29.2194 15.9688 29.577 15.9688 29.95C15.9688 30.323 15.8206 30.6807 15.5569 30.9444C15.2931 31.2081 14.9355 31.3563 14.5625 31.3563Z" fill="#FEFEFE"/>
<path d="M28.7374 21.9062H2.26245C1.88949 21.9062 1.53181 21.7581 1.26808 21.4944C1.00436 21.2306 0.856201 20.873 0.856201 20.5C0.856201 20.127 1.00436 19.7694 1.26808 19.5056C1.53181 19.2419 1.88949 19.0938 2.26245 19.0938H28.7374C29.1104 19.0938 29.4681 19.2419 29.7318 19.5056C29.9955 19.7694 30.1437 20.127 30.1437 20.5C30.1437 20.873 29.9955 21.2306 29.7318 21.4944C29.4681 21.7581 29.1104 21.9062 28.7374 21.9062Z" fill="#FEFEFE"/>
</svg>
