<svg width="406" height="306" viewBox="0 0 406 306" fill="none" xmlns="http://www.w3.org/2000/svg">
<path d="M196.128 292.481L13.7025 184.668C7.89669 181.42 2.91304 176.051 8.57674 172.539L191.652 66.9787C194.403 65.2735 198.575 64.157 201.366 65.781L392.805 176.964C398.611 180.334 399.656 189.753 393.82 193.133L220.174 292.309C216.526 294.425 212.391 295.554 208.174 295.584C203.957 295.614 199.806 294.545 196.128 292.481V292.481Z" fill="#DADADA"/>
<path d="M105.936 176.091C110.422 173.341 131.757 159.75 136.162 156.887C143.714 151.985 153.356 144.88 153.356 144.88L105.255 122.276L64.899 148.778C72.207 152.604 94.2427 179.014 97.8967 181.055C99.5308 180.09 104.332 177.076 105.936 176.091Z" fill="url(#paint0_linear_15:57)"/>
<path d="M212.734 240.818C227.959 232.627 274.75 195.082 275.664 192.443L224.315 159.354L149.784 198.746C165.689 207.079 190.739 227.207 212.734 240.818Z" fill="url(#paint1_linear_15:57)"/>
<path d="M243.6 150.067L224.315 159.354C223.59 159.705 222.974 160.245 222.533 160.919C222.091 161.592 221.841 162.373 221.809 163.177C221.777 163.982 221.963 164.78 222.349 165.487C222.735 166.194 223.306 166.782 224 167.19L269.736 193.864C270.725 194.441 271.899 194.615 273.013 194.348C274.126 194.082 275.094 193.395 275.715 192.433L286.829 175.178" fill="#095B58"/>
<path d="M340.522 100.616L183.005 9.88502C182.228 9.41977 181.342 9.17052 180.437 9.16307C179.532 9.15563 178.642 9.39027 177.858 9.84269C177.074 10.2951 176.426 10.9488 175.98 11.7362C175.534 12.5235 175.306 13.4158 175.321 14.3206V110.746C175.321 111.439 175.504 112.121 175.852 112.721C176.199 113.322 176.699 113.82 177.3 114.166L344.958 210.946C345.248 211.114 345.577 211.202 345.913 211.202C346.248 211.202 346.577 211.114 346.867 210.946C347.157 210.778 347.398 210.537 347.565 210.247C347.733 209.956 347.821 209.627 347.82 209.292V113.232C347.819 110.674 347.144 108.16 345.863 105.946C344.582 103.731 342.74 101.893 340.522 100.616V100.616Z" fill="#2B6E62"/>
<path d="M185.745 18.4009L334.95 104.28C336.544 105.197 337.868 106.517 338.789 108.108C339.711 109.699 340.196 111.505 340.198 113.344V182.435C340.198 183.097 340.024 183.748 339.694 184.321C339.364 184.895 338.889 185.372 338.316 185.704C337.743 186.036 337.093 186.212 336.431 186.213C335.769 186.215 335.118 186.043 334.544 185.713L182.385 98.4235C181.807 98.0954 181.326 97.6183 180.994 97.0417C180.662 96.4652 180.491 95.8103 180.498 95.145V21.4459C180.496 20.8309 180.656 20.2263 180.962 19.6929C181.269 19.1596 181.71 18.7163 182.242 18.4076C182.774 18.099 183.377 17.9358 183.992 17.9346C184.607 17.9335 185.212 18.0943 185.745 18.4009V18.4009Z" fill="white"/>
<path d="M250.113 148.501C250.994 148.331 251.707 148.189 251.706 148.184C251.705 148.178 250.99 148.311 250.11 148.481C249.229 148.65 248.516 148.792 248.517 148.798C248.518 148.803 249.233 148.67 250.113 148.501Z" fill="#AB643C"/>
<path d="M328.87 108.137C329.767 108.137 330.494 107.346 330.494 106.371C330.494 105.396 329.767 104.605 328.87 104.605C327.973 104.605 327.246 105.396 327.246 106.371C327.246 107.346 327.973 108.137 328.87 108.137Z" fill="#659FE4"/>
<path d="M323.694 105.559C324.59 105.559 325.318 104.768 325.318 103.793C325.318 102.817 324.59 102.027 323.694 102.027C322.797 102.027 322.07 102.817 322.07 103.793C322.07 104.768 322.797 105.559 323.694 105.559Z" fill="#C5E9FF"/>
<path d="M187.491 36.2243L223.442 55.4484C225.168 56.372 226.71 53.7432 224.975 52.8195L189.034 33.5954C187.308 32.6718 185.765 35.3006 187.501 36.2243H187.491Z" fill="#00A99D"/>
<path d="M46.8422 204.227C51.3285 201.473 55.781 198.665 60.1996 195.803C67.7411 190.9 70.9484 189.956 77.9621 184.1L47.8674 170.905L17.0114 186.617C24.3194 190.443 43.1984 202.197 46.8422 204.227C48.4764 203.273 45.2284 205.222 46.8422 204.227Z" fill="url(#paint2_linear_15:57)"/>
<path d="M62.8488 129.076C48.9839 129.076 37.7377 132.751 37.7377 137.288H87.9599C87.9599 132.7 76.7238 129.076 62.8488 129.076Z" fill="#0A1D23"/>
<path d="M37.8189 137.917L37.7377 137.278C37.7399 137.493 37.7671 137.708 37.8189 137.917V137.917Z" fill="#06489E"/>
<path d="M87.9599 137.288L87.8584 138.008C87.9234 137.774 87.9576 137.531 87.9599 137.288V137.288Z" fill="#06489E"/>
<path d="M62.8488 145.489C75.9727 145.489 86.7419 142.2 87.8584 137.998L87.9599 137.278H37.7377L37.8189 137.917C38.8136 142.15 49.6335 145.489 62.8488 145.489Z" fill="#0A1D23"/>
<path d="M72.4507 94.9014H66.7971V153.183H72.4507V94.9014Z" fill="#25B000"/>
<path d="M69.6289 96.0991C71.1873 96.0991 72.4506 95.5629 72.4506 94.9014C72.4506 94.24 71.1873 93.7037 69.6289 93.7037C68.0706 93.7037 66.8073 94.24 66.8073 94.9014C66.8073 95.5629 68.0706 96.0991 69.6289 96.0991Z" fill="#25B000"/>
<path d="M85.0069 106.028L79.4677 104.897L67.8084 162L73.3476 163.131L85.0069 106.028Z" fill="#FF8F02"/>
<path d="M85.0028 106.017C85.1351 105.369 84.0046 104.591 82.4778 104.279C80.9509 103.967 79.6058 104.24 79.4735 104.888C79.3412 105.536 80.4717 106.314 81.9986 106.626C83.5254 106.938 84.8705 106.665 85.0028 106.017Z" fill="#FF8F02"/>
<path d="M56.0281 138.567L50.8718 141.52C50.7669 141.581 50.6421 141.597 50.5251 141.566C50.408 141.534 50.3082 141.458 50.2476 141.353C50.1871 141.248 50.1707 141.123 50.2021 141.006C50.2335 140.889 50.3101 140.789 50.4151 140.729L55.6931 137.684C55.743 137.653 55.798 137.633 55.8555 137.623L54.8405 132.04L49.6336 135.035C49.5286 135.095 49.4038 135.111 49.2868 135.08C49.1697 135.049 49.0699 134.972 49.0093 134.867C48.9488 134.762 48.9324 134.637 48.9638 134.52C48.9952 134.403 49.0718 134.303 49.1768 134.243L54.4548 131.198C54.5137 131.163 54.5796 131.143 54.6477 131.137L53.6936 125.971L48.6186 128.884C48.5136 128.944 48.3888 128.961 48.2718 128.929C48.1547 128.898 48.0549 128.821 47.9943 128.716C47.9338 128.611 47.9174 128.486 47.9488 128.369C47.9802 128.252 48.0568 128.152 48.1618 128.092L53.4398 125.047H53.5413L52.4756 119.292L47.4006 122.195C47.2956 122.255 47.1708 122.272 47.0538 122.24C46.9367 122.209 46.8369 122.132 46.7763 122.027C46.7158 121.922 46.6994 121.798 46.7308 121.68C46.7622 121.563 46.8388 121.464 46.9438 121.403L52.2218 118.358H52.303L51.288 112.735L46.1318 115.689C46.0268 115.749 45.9021 115.766 45.785 115.734C45.6679 115.703 45.5681 115.626 45.5076 115.521C45.447 115.416 45.4306 115.291 45.462 115.174C45.4934 115.057 45.5701 114.957 45.6751 114.897L50.9531 111.852C51.0029 111.822 51.058 111.801 51.1155 111.791L50.2121 106.909L45.0458 109.862C44.9408 109.923 44.816 109.939 44.699 109.908C44.5819 109.877 44.4821 109.8 44.4215 109.695C44.361 109.59 44.3446 109.465 44.376 109.348C44.4074 109.231 44.484 109.131 44.589 109.071L49.867 106.026C49.9199 105.994 49.9786 105.974 50.0396 105.965L49.1362 101.093L43.98 104.036C43.875 104.097 43.7503 104.113 43.6332 104.082C43.5161 104.051 43.4163 103.974 43.3558 103.869C43.2952 103.764 43.2788 103.639 43.3102 103.522C43.3416 103.405 43.4183 103.305 43.5233 103.245L48.8013 100.2C48.8426 100.201 48.8835 100.208 48.9231 100.22L47.9081 94.8608L42.8331 97.7738C42.7281 97.8344 42.6033 97.8508 42.4863 97.8194C42.3692 97.788 42.2694 97.7114 42.2088 97.6064C42.1483 97.5014 42.1319 97.3766 42.1633 97.2596C42.1947 97.1425 42.2713 97.0427 42.3763 96.9821L47.6543 93.9371H47.7558L47.2889 91.4402L36.1239 98.3829C36.1239 98.3829 44.0815 142.688 44.2439 142.779C48.8926 145.205 57.3476 145.489 57.3476 145.489L56.0281 138.567Z" fill="#2B6E62"/>
<path d="M42.3661 97.0024C42.2611 97.063 42.1845 97.1628 42.1531 97.2799C42.1217 97.3969 42.138 97.5217 42.1986 97.6267C42.2592 97.7316 42.359 97.8083 42.476 97.8397C42.5931 97.8711 42.7178 97.8547 42.8228 97.7941L47.8978 94.8811L47.705 93.9371H47.6035L42.3661 97.0024Z" fill="#2EAC6C"/>
<path d="M43.4827 103.265C43.3777 103.326 43.301 103.425 43.2696 103.542C43.2382 103.659 43.2546 103.784 43.3152 103.889C43.3758 103.994 43.4755 104.071 43.5926 104.102C43.7097 104.134 43.8344 104.117 43.9394 104.057L49.0956 101.113L48.9231 100.22C48.8698 100.228 48.8182 100.245 48.7708 100.271L43.4827 103.265Z" fill="#2EAC6C"/>
<path d="M44.5483 109.111C44.4433 109.172 44.3667 109.272 44.3353 109.389C44.3039 109.506 44.3203 109.631 44.3809 109.736C44.4414 109.841 44.5412 109.917 44.6583 109.949C44.7754 109.98 44.9001 109.964 45.0051 109.903L50.1714 106.949L49.9989 106.036C49.9379 106.045 49.8793 106.065 49.8263 106.097L44.5483 109.111Z" fill="#2EAC6C"/>
<path d="M45.675 114.897C45.5701 114.957 45.4934 115.057 45.462 115.174C45.4306 115.291 45.447 115.416 45.5076 115.521C45.5681 115.626 45.6679 115.703 45.785 115.734C45.9021 115.766 46.0268 115.749 46.1318 115.689L51.288 112.735L51.1154 111.821C51.058 111.831 51.0029 111.852 50.953 111.882L45.675 114.897Z" fill="#2EAC6C"/>
<path d="M46.9235 121.413C46.8185 121.474 46.7418 121.574 46.7104 121.691C46.679 121.808 46.6954 121.932 46.756 122.037C46.8165 122.142 46.9163 122.219 47.0334 122.25C47.1505 122.282 47.2752 122.265 47.3802 122.205L52.4552 119.302L52.2827 118.358H52.2015L46.9235 121.413Z" fill="#2EAC6C"/>
<path d="M48.1415 128.122C48.0365 128.183 47.9599 128.283 47.9285 128.4C47.897 128.517 47.9134 128.642 47.974 128.747C48.0346 128.852 48.1344 128.928 48.2514 128.96C48.3685 128.991 48.4932 128.975 48.5982 128.914L53.6732 126.001L53.5007 125.067H53.3992L48.1415 128.122Z" fill="#2EAC6C"/>
<path d="M54.4548 131.228L49.1768 134.273C49.0718 134.334 48.9951 134.434 48.9637 134.551C48.9323 134.668 48.9487 134.792 49.0093 134.897C49.0698 135.002 49.1696 135.079 49.2867 135.111C49.4038 135.142 49.5285 135.126 49.6335 135.065L54.81 132.071L54.6375 131.167C54.5729 131.174 54.5106 131.195 54.4548 131.228V131.228Z" fill="#2EAC6C"/>
<path d="M50.415 140.719C50.31 140.779 50.2334 140.879 50.202 140.996C50.1706 141.113 50.187 141.238 50.2476 141.343C50.3081 141.448 50.4079 141.524 50.525 141.556C50.642 141.587 50.7668 141.571 50.8718 141.51L56.028 138.557L55.8554 137.643C55.798 137.653 55.7429 137.674 55.693 137.704L50.415 140.719Z" fill="#2EAC6C"/>
<path d="M79.4644 104.889C79.4644 104.889 79.7486 106.371 81.9917 106.625C84.2349 106.878 85.0367 106.016 85.0367 106.016L84.3059 94.8506L79.4644 104.889Z" fill="#FFD8BD"/>
<path d="M84.245 94.9014L82.012 99.54C82.3308 99.8868 82.7604 100.112 83.2271 100.177C83.6938 100.242 84.1684 100.142 84.5698 99.8952L84.245 94.9014Z" fill="#653200"/>
<path d="M66.7971 94.5563C66.7971 94.5563 67.3148 95.9773 69.5681 95.8758C71.8214 95.7743 72.4405 94.7999 72.4405 94.7999L69.9741 83.98L66.7971 94.5563Z" fill="#FFD8BD"/>
<path d="M69.9741 83.98L68.5023 88.9129C68.8735 89.191 69.3287 89.3336 69.7923 89.317C70.2558 89.3004 70.6997 89.1255 71.05 88.8215L69.9741 83.98Z" fill="#653200"/>
<path d="M62.8487 145.489C49.6537 145.489 38.8135 142.15 37.8188 137.917C38.4786 142.992 42.9852 177.827 43.1577 178.03C43.1577 178.03 45.4618 187.855 62.8487 187.845C77.6373 187.845 81.8597 180.415 81.8597 180.415L87.8583 137.998C86.7418 142.2 75.9727 145.489 62.8487 145.489Z" fill="#173743"/>
<path d="M108.91 54.7074L99.9065 59.5083L124.48 82.6503L146.15 89.4508L153.356 79.6662" fill="#FFE8BC"/>
<path d="M142.831 84.5281L151.184 79.7677L108.91 54.7074L109.904 54.1288L153.356 79.6662V144.88L143.876 150.28L140.263 146.504" fill="#2B6E62"/>
<path opacity="0.42" d="M142.831 84.5281L151.184 79.7677L108.91 54.7074L109.904 54.1288L153.356 79.6662V144.88L143.876 150.28L140.263 146.504" fill="#1371A5"/>
<path d="M99.9065 59.5084L143.876 85.1371V150.28L99.2163 123.585L99.9065 59.5084Z" fill="#2B6E62"/>
<path d="M142.222 80.864L139.532 82.5692V96.4544L137.827 94.2721L136.629 95.6221V80.9147L139.146 79.108L142.222 80.864Z" fill="#E85858"/>
<path d="M96.6078 73.4138L88.5791 77.6971L110.483 98.3219L129.788 104.392L136.223 95.6728" fill="#FFE8BC"/>
<path d="M126.834 99.9967L134.284 95.7642L96.6077 73.4139L97.4907 72.9064L136.223 95.6728V153.792L127.768 158.603L124.551 155.243" fill="#2B6E62"/>
<path opacity="0.42" d="M126.834 99.9967L134.284 95.7642L96.6077 73.4139L97.4907 72.9064L136.223 95.6728V153.792L127.768 158.603L124.551 155.243" fill="#1371A5"/>
<path d="M88.5791 77.6971L127.768 100.545V158.603L87.96 134.811L88.5791 77.6971Z" fill="#2B6E62"/>
<path d="M126.286 96.7386L123.901 98.2509V110.624L122.378 108.685L121.313 109.883V96.7792L123.546 95.1755L126.286 96.7386Z" fill="#E85858"/>
<path d="M144.059 234.2C144.059 234.2 143.582 237.915 144.13 238.138C145.122 238.739 146.293 238.972 147.439 238.798C149.074 238.268 150.738 237.831 152.422 237.489C154.452 237.194 159.71 237.813 160.614 236.413C161.517 235.012 160.614 232.099 160.614 232.099" fill="#FFE0DE"/>
<path d="M160.603 232.119C160.197 229.856 156.848 230.8 155.275 229.775C152.382 227.907 152.23 223.796 152.494 220.721L146.059 218.488L144.79 225.877L144.059 234.241C144.384 234.698 144.815 235.07 145.315 235.325C145.816 235.58 146.37 235.709 146.931 235.702L151.225 234.748C153.955 234.494 160.888 233.703 160.603 232.119Z" fill="#56403D"/>
<path d="M153.032 238.615C153.032 238.615 152.554 242.33 153.103 242.553C154.094 243.154 155.265 243.387 156.412 243.213C158.047 242.683 159.711 242.246 161.395 241.904C163.425 241.609 168.683 242.229 169.586 240.828C170.49 239.427 169.586 236.514 169.586 236.514" fill="#FFE0DE"/>
<path d="M169.576 236.494C169.17 234.23 165.82 235.174 164.247 234.149C161.354 232.282 161.202 228.171 161.466 225.095L155.031 222.862L153.762 230.252L153.031 238.615C153.356 239.073 153.788 239.445 154.288 239.7C154.788 239.954 155.343 240.084 155.904 240.077L160.197 239.123C162.928 238.869 169.86 238.087 169.576 236.494Z" fill="#56403D"/>
<path d="M143.734 213.9L142.1 222.578C142.1 222.578 144.597 225.146 153.011 224.842C161.426 224.537 153.011 209.475 153.011 209.475" fill="#E85B5B"/>
<path d="M132.813 238.595C139.427 238.595 144.79 236.605 144.79 234.149C144.79 231.694 139.427 229.704 132.813 229.704C126.198 229.704 120.836 231.694 120.836 234.149C120.836 236.605 126.198 238.595 132.813 238.595Z" fill="#56403D"/>
<path d="M130.793 214.245L131.26 232.16H134.833V214.245" fill="#56403D"/>
<path d="M155.843 188.393C152.257 189.178 148.64 189.784 144.993 190.21C144.912 190.218 144.834 190.241 144.762 190.28C144.691 190.318 144.628 190.37 144.577 190.433C144.157 189.175 143.798 187.892 143.501 186.586C143.338 185.845 142.201 186.16 142.364 186.901C143.035 189.861 144.033 192.737 145.338 195.478C145.663 196.168 146.678 195.569 146.353 194.879C145.815 193.732 145.338 192.575 144.901 191.387H144.983C148.731 190.947 152.453 190.325 156.148 189.52C156.899 189.367 156.584 188.231 155.843 188.393Z" fill="#008074"/>
<path d="M146.16 196.706C145.203 198.299 143.973 199.711 142.526 200.878C141.938 201.355 142.78 202.187 143.359 201.71C144.878 200.476 146.17 198.985 147.175 197.305C147.214 197.238 147.24 197.164 147.251 197.088C147.262 197.011 147.257 196.933 147.238 196.858C147.219 196.783 147.185 196.713 147.138 196.651C147.092 196.589 147.034 196.537 146.967 196.498C146.9 196.459 146.827 196.433 146.75 196.422C146.673 196.411 146.595 196.415 146.52 196.435C146.445 196.454 146.375 196.488 146.313 196.534C146.251 196.581 146.199 196.639 146.16 196.706V196.706Z" fill="#008074"/>
<path d="M138.811 192.869C138.811 192.869 148.2 185.338 154.432 184.445C160.664 183.551 163.923 190.322 163.476 194.848C163.029 199.375 148.109 201.852 148.109 201.852" fill="#EDBAB9"/>
<path d="M143.815 195.376C145.033 194.25 160.969 186.81 166.582 190.21C172.195 193.61 171.839 196.117 171.129 200.258C170.418 204.4 165.039 226.648 165.039 226.648C160.964 228.213 156.494 228.423 152.291 227.247L153.864 210.693L132.63 199.101" fill="#FF7E7B"/>
<path d="M132.204 168.743C133.046 169.362 140.324 170.235 141.846 173.594C143.369 176.954 145.683 194.239 145.683 194.239C145.683 194.239 141.318 200.746 133.757 198.431C131.514 197.741 119.882 176.477 119.547 174.274C118.755 168.53 132.204 168.743 132.204 168.743Z" fill="#FCCA4C"/>
<path d="M117.852 206.105C117.484 205.232 117.182 204.333 116.948 203.415C115.162 196.422 113.995 170.164 125.799 171.24C138.751 172.407 134.376 204.836 147.5 203.841C160.624 202.847 166.003 206.257 160.634 211.342C149.905 221.502 124.429 221.736 117.852 206.105Z" fill="#2B6E62"/>
<path d="M136.852 159.374C136.934 159.902 137.867 167.423 135.645 169.118C133.422 170.813 128.418 166.814 128.296 164.825C128.174 162.835 126.479 158.735 128.611 157.659C130.742 156.583 136.254 155.659 136.852 159.374Z" fill="#FFE0DE"/>
<path d="M134.995 154.096L134.741 153.934C131.889 152.259 127.19 152.675 124.825 155.081C124.188 155.771 123.636 156.534 123.18 157.354C122.834 157.963 122.451 158.549 122.033 159.11C121.983 162.133 123.133 165.053 125.231 167.23C127.272 168.524 129.625 169.243 132.041 169.311C132.975 166.52 131.625 163.343 132.955 160.541C133.6 159.286 134.642 158.28 135.919 157.679C135.974 156.42 135.653 155.172 134.995 154.096Z" fill="#E0902F"/>
<path d="M134.112 164.571C133.967 164.156 133.737 163.777 133.436 163.457C133.136 163.137 132.771 162.884 132.366 162.714C131.625 162.409 130.61 162.318 130.164 163.13C129.149 164.926 131.605 166.175 132.904 166.682C133.513 166.916 133.777 165.931 133.178 165.667L132.965 165.586H133.036C133.099 165.59 133.163 165.581 133.223 165.56C133.282 165.538 133.337 165.504 133.383 165.46C133.429 165.416 133.465 165.363 133.489 165.304C133.513 165.246 133.525 165.183 133.523 165.119C133.858 165.241 134.264 164.997 134.112 164.571Z" fill="#FFE0DE"/>
<path d="M153.874 161.445L174.813 174.559L171.342 189.327L151.783 175.969L153.874 161.445Z" fill="#2B6E62"/>
<path d="M151.783 175.959C151.783 175.959 141.085 181.288 141.217 181.42C141.349 181.552 160.116 195.63 160.116 195.63L171.342 189.357L151.783 175.959Z" fill="#3129A3"/>
<path d="M156.31 187.236C156.31 187.236 159.152 184.688 159.578 184.485C159.905 184.423 160.242 184.437 160.563 184.527C160.883 184.617 161.179 184.78 161.426 185.003C161.882 185.429 162.522 185.277 163.029 185.825C163.537 186.373 164.826 188.302 164.461 188.809C164.095 189.317 163.07 188.089 162.725 187.794C162.38 187.5 162.725 188.809 162.238 189.591C161.75 190.372 158.797 191.113 158.005 190.961" fill="#FFE0DE"/>
<path d="M142.323 175.959C142.323 175.959 145.805 187.845 147.845 187.886C149.885 187.926 156.29 185.764 156.29 185.764C156.29 185.764 159.05 188.586 158.736 190.372C158.421 192.159 147.073 198.492 142.333 197.335C137.593 196.178 135.299 179.796 135.401 179.481C135.502 179.167 142.323 175.959 142.323 175.959Z" fill="#FCCA4C"/>
<path d="M154.442 180.131C153.89 179.714 153.31 179.334 152.707 178.994C152.179 178.751 151.692 178.476 151.225 178.213C151.017 178.081 150.785 177.993 150.543 177.955C150.3 177.916 150.052 177.928 149.814 177.989C148.792 178.743 147.809 179.55 146.87 180.405C146.302 180.811 145.724 181.207 145.125 181.582C145.02 181.646 144.942 181.745 144.905 181.861C144.868 181.978 144.874 182.104 144.922 182.216C144.97 182.328 145.057 182.42 145.167 182.473C145.277 182.526 145.403 182.538 145.521 182.506C145.815 182.435 146.099 182.344 146.383 182.242C146.371 182.421 146.371 182.601 146.383 182.78C146.27 183.399 146.385 184.037 146.708 184.577C146.741 184.644 146.79 184.703 146.85 184.749L146.475 184.891C145.866 185.115 146.13 186.099 146.749 185.906L150.24 184.627C151.088 184.408 151.863 183.966 152.483 183.348C152.566 183.27 152.619 183.165 152.635 183.052C152.651 182.94 152.628 182.825 152.571 182.726C152.514 182.628 152.425 182.551 152.318 182.51C152.212 182.468 152.095 182.463 151.986 182.496C151.732 182.557 151.489 182.638 151.245 182.719C151.803 181.958 152.656 181.044 152.95 181.298C153.284 181.55 153.687 181.694 154.105 181.708C154.523 181.723 154.935 181.608 155.285 181.379C155.833 180.831 154.859 180.405 154.442 180.131Z" fill="#FFE0DE"/>
<path d="M146.85 180.506C146.85 180.506 143.227 180.984 140.517 181.055C139.41 182.557 138.405 184.1 137.472 185.724C137.675 186.739 137.756 187.754 137.979 188.769C138.006 188.964 138.006 189.162 137.979 189.357C142.8 188.566 147.936 186.576 148.352 185.51C149.002 183.805 146.85 180.506 146.85 180.506Z" fill="#FCCA4C"/>
<path d="M127.108 157.06C127.011 156.642 126.798 156.26 126.492 155.958C126.187 155.656 125.802 155.447 125.383 155.355C122.866 154.685 119.547 156.218 118.796 158.816C118.501 160.208 118.77 161.659 119.545 162.853C120.319 164.046 121.536 164.883 122.927 165.18C123.623 165.242 124.324 165.159 124.987 164.936C125.65 164.714 126.259 164.358 126.778 163.889C127.296 163.42 127.712 162.849 128 162.212C128.287 161.575 128.44 160.885 128.448 160.186C128.444 159.602 128.323 159.025 128.093 158.488C127.863 157.951 127.528 157.466 127.108 157.06V157.06Z" fill="#CC781D"/>
<path d="M213.647 250.927C213.647 251.354 213.312 256.449 213.881 257.017C214.449 257.586 215.911 260.489 217.789 260.62C219.666 260.752 221.351 260.377 221.696 262.356C222.041 264.335 211.222 265.005 211.222 265.005C211.222 265.005 210.085 260.478 209.598 260.61C209.11 260.742 209.09 265.665 209.09 265.665L207.06 266.091L205.03 264.752L205.842 256.063L207.151 248.684" fill="#0D7874"/>
<path d="M221.757 258.215C221.493 261.26 221.646 265.401 224.538 267.269C226.122 268.284 229.461 267.35 229.867 269.613C230.222 271.593 219.402 272.323 219.402 272.323C219.402 272.323 218.235 267.797 217.748 267.939C217.261 268.081 217.311 272.943 217.311 272.943L215.281 273.389L213.251 272.06L214.013 263.371L215.281 255.982" fill="#0D7874"/>
<path d="M204.015 246.999L202.421 255.688C202.421 255.688 204.918 258.255 213.333 257.951C221.747 257.646 213.333 242.584 213.333 242.584" fill="#EDBAB9"/>
<path d="M193.114 271.714C199.729 271.714 205.091 269.724 205.091 267.269C205.091 264.813 199.729 262.823 193.114 262.823C186.499 262.823 181.137 264.813 181.137 267.269C181.137 269.724 186.499 271.714 193.114 271.714Z" fill="#56403D"/>
<path d="M191.094 247.354L191.561 265.269H195.134V247.354" fill="#56403D"/>
<path d="M216.195 221.502C212.609 222.287 208.992 222.893 205.345 223.319C205.264 223.327 205.185 223.351 205.114 223.389C205.043 223.427 204.979 223.479 204.928 223.543C204.509 222.284 204.15 221.002 203.853 219.696C203.69 218.955 202.553 219.269 202.716 220.01C203.387 222.97 204.385 225.847 205.69 228.587C206.015 229.277 207.03 228.678 206.705 227.988C206.167 226.841 205.69 225.684 205.253 224.497H205.334C209.083 224.057 212.805 223.434 216.499 222.629C217.21 222.477 216.895 221.34 216.195 221.502Z" fill="#008074"/>
<path d="M206.461 229.815C205.504 231.408 204.274 232.82 202.827 233.987C202.239 234.464 203.081 235.296 203.66 234.819C205.18 233.585 206.471 232.094 207.476 230.414C207.515 230.347 207.541 230.274 207.552 230.197C207.563 230.12 207.559 230.042 207.539 229.968C207.52 229.893 207.486 229.822 207.439 229.76C207.393 229.699 207.335 229.646 207.268 229.607C207.201 229.568 207.128 229.542 207.051 229.531C206.974 229.52 206.896 229.525 206.822 229.544C206.747 229.563 206.676 229.597 206.614 229.644C206.553 229.69 206.5 229.749 206.461 229.815V229.815Z" fill="#008074"/>
<path d="M199.113 225.979C199.113 225.979 208.501 218.447 214.733 217.554C220.965 216.661 224.224 223.431 223.777 227.958C223.33 232.485 208.41 234.961 208.41 234.961" fill="#EDBAB9"/>
<path d="M204.116 228.486C205.334 227.359 221.27 219.919 226.883 223.319C232.496 226.719 232.141 229.226 231.43 233.368C230.72 237.509 225.34 259.758 225.34 259.758C221.266 261.323 216.795 261.533 212.592 260.357L214.165 243.842L192.85 232.241" fill="#FFE0DE"/>
<path d="M192.505 201.862C193.347 202.481 200.625 203.354 202.147 206.714C203.67 210.073 205.984 227.359 205.984 227.359C205.984 227.359 201.62 233.865 194.058 231.551C191.815 230.861 180.183 209.596 179.848 207.394C179.046 201.639 192.505 201.862 192.505 201.862Z" fill="#006D29"/>
<path d="M178.153 239.214C177.785 238.341 177.483 237.442 177.249 236.524C175.463 229.531 174.296 203.273 186.1 204.349C199.052 205.516 194.677 237.945 207.801 236.951C220.925 235.956 226.304 239.366 220.935 244.452C210.207 254.612 184.73 254.845 178.153 239.214Z" fill="#2B6E62"/>
<path d="M197.154 192.483C197.235 193.011 198.169 200.532 195.946 202.227C193.723 203.923 188.719 199.923 188.597 197.934C188.475 195.945 186.78 191.844 188.912 190.768C191.043 189.692 196.555 188.769 197.154 192.483Z" fill="#FFE0DE"/>
<path d="M195.032 187.053C192.18 185.378 187.481 185.795 185.116 188.2C184.479 188.89 183.927 189.653 183.471 190.474C183.125 191.082 182.742 191.668 182.324 192.23C182.274 195.253 183.424 198.172 185.522 200.35C187.91 201.889 190.738 202.602 193.571 202.38C193.327 201.365 193.114 200.35 192.952 199.335C192.688 197.68 192.292 195.66 193.52 194.26C193.726 194.005 194.001 193.814 194.312 193.71C194.623 193.606 194.957 193.592 195.276 193.671L195.357 193.62L197.793 193.773C198.223 192.508 198.181 191.13 197.673 189.895C197.166 188.659 196.227 187.65 195.032 187.053V187.053Z" fill="#E0902F"/>
<path d="M183.421 191.57C180.711 186.698 172.499 189.093 171.89 194.25C171.639 196.716 172.3 199.189 173.748 201.202C175.696 203.638 175.778 209.069 172.408 213.027C169.038 216.986 171.789 221.746 175.696 223.431C179.604 225.116 188.069 225.065 187.775 218.224C187.481 211.383 179.229 202.644 179.35 197.924C179.472 193.204 184.222 195.894 184.222 195.894" fill="#E0902F"/>
<path d="M184.73 191.763C184.73 191.224 184.516 190.708 184.135 190.327C183.755 189.947 183.238 189.733 182.7 189.733C182.166 189.746 181.657 189.964 181.279 190.342C180.901 190.72 180.683 191.229 180.67 191.763C180.597 192.576 180.577 193.393 180.609 194.209C180.609 194.747 180.823 195.264 181.204 195.644C181.584 196.025 182.101 196.239 182.639 196.239C183.177 196.239 183.694 196.025 184.074 195.644C184.455 195.264 184.669 194.747 184.669 194.209C184.637 193.393 184.657 192.576 184.73 191.763V191.763Z" fill="#3129A3"/>
<path d="M194.413 197.66C194.268 197.245 194.038 196.866 193.737 196.546C193.437 196.226 193.072 195.973 192.667 195.803C191.926 195.498 190.911 195.407 190.465 196.219C189.45 198.015 191.906 199.264 193.205 199.771C193.814 200.005 194.078 199.02 193.479 198.756L193.266 198.675H193.337C193.401 198.679 193.464 198.67 193.524 198.649C193.584 198.627 193.638 198.593 193.684 198.549C193.73 198.505 193.766 198.452 193.79 198.393C193.814 198.335 193.826 198.272 193.824 198.208C194.159 198.35 194.565 198.107 194.413 197.66Z" fill="#FFE0DE"/>
<path d="M214.175 194.554L235.115 207.668L231.643 222.436L212.084 209.079L214.175 194.554Z" fill="#2B6E62"/>
<path d="M212.084 209.079C212.084 209.079 201.396 214.407 201.518 214.55C201.64 214.692 220.417 228.709 220.417 228.709L231.643 222.436L212.084 209.079Z" fill="#2EAC6C"/>
<path d="M216.581 220.345C216.581 220.345 219.423 217.798 219.849 217.595C220.176 217.532 220.513 217.546 220.834 217.636C221.154 217.726 221.449 217.889 221.696 218.112C222.153 218.539 222.792 218.386 223.3 218.934C223.807 219.483 225.097 221.411 224.731 221.919C224.366 222.426 223.341 221.198 222.995 220.904C222.65 220.609 222.995 221.919 222.508 222.7C222.021 223.482 219.067 224.223 218.276 224.07" fill="#FFE0DE"/>
<path d="M202.624 209.079C202.624 209.079 206.106 221.005 208.136 221.005C210.166 221.005 216.581 218.884 216.581 218.884C216.581 218.884 219.341 221.705 219.027 223.492C218.712 225.278 207.364 231.612 202.624 230.455C197.884 229.298 195.59 212.915 195.692 212.601C195.793 212.286 202.624 209.079 202.624 209.079Z" fill="#006D29"/>
<path d="M214.744 213.24C214.191 212.823 213.611 212.443 213.008 212.103C212.48 211.86 211.993 211.586 211.526 211.322C211.319 211.19 211.086 211.102 210.844 211.064C210.601 211.026 210.353 211.037 210.115 211.099C209.089 211.865 208.103 212.685 207.161 213.555C206.593 213.961 206.015 214.357 205.416 214.732C205.311 214.796 205.233 214.895 205.196 215.011C205.159 215.128 205.165 215.254 205.213 215.366C205.261 215.478 205.348 215.569 205.458 215.623C205.568 215.676 205.694 215.688 205.812 215.656C206.106 215.585 206.39 215.494 206.674 215.392C206.662 215.571 206.662 215.751 206.674 215.93C206.561 216.548 206.676 217.187 206.999 217.727C207.032 217.794 207.081 217.853 207.141 217.899L206.766 218.041C206.157 218.264 206.421 219.249 207.04 219.056L210.531 217.777C211.379 217.558 212.154 217.116 212.774 216.498C212.857 216.42 212.91 216.315 212.926 216.202C212.942 216.089 212.919 215.974 212.862 215.876C212.805 215.777 212.716 215.701 212.609 215.659C212.503 215.618 212.386 215.613 212.277 215.646C212.023 215.707 211.78 215.788 211.536 215.869C212.094 215.108 212.947 214.194 213.241 214.448C213.575 214.7 213.978 214.844 214.396 214.858C214.814 214.873 215.226 214.758 215.576 214.529C216.134 213.9 215.18 213.494 214.744 213.24Z" fill="#FFE0DE"/>
<path d="M207.151 213.616C207.151 213.616 203.528 214.093 200.818 214.164C199.711 215.666 198.707 217.209 197.773 218.833C197.976 219.848 198.057 220.863 198.28 221.878C198.307 222.073 198.307 222.271 198.28 222.467C203.101 221.675 208.237 219.686 208.654 218.62C209.303 216.945 207.151 213.616 207.151 213.616Z" fill="#006D29"/>
<path d="M253.953 81.7267L248.482 80.6609L248.401 80.8741C248.084 80.6882 247.742 80.5481 247.386 80.4579C246.862 80.311 246.303 80.3688 245.82 80.6195C245.338 80.8702 244.968 81.295 244.788 81.8079C244.632 82.2199 244.632 82.6747 244.788 83.0868C244.613 83.2668 244.477 83.4799 244.386 83.7135C244.296 83.9471 244.253 84.1964 244.26 84.4469C244.258 84.9824 244.461 85.4983 244.828 85.8882C244.656 86.1961 244.588 86.5519 244.635 86.9017C244.683 87.2515 244.843 87.5763 245.092 87.8268C245.75 88.3739 246.548 88.7255 247.396 88.8418C248.837 91.6635 252.329 95.3886 253.395 94.7999C254.785 94.0285 256.805 90.3846 256.805 90.3846L253.953 81.7267Z" fill="#E89C89"/>
<path d="M252.532 83.6654L227.583 47.2675L226.599 47.6938L253.446 91.1256" fill="#935A4E"/>
<path d="M258.764 89.6538C258.764 89.6538 257.81 81.95 256.369 81.0771C254.927 80.2042 250.208 78.2554 249.325 79.2805C248.442 80.3057 247.63 82.3255 248.482 83.1274C249.335 83.9292 250.979 81.95 250.979 81.95L252.41 82.965C252.41 82.965 250.543 84.5788 250.654 88.4257C250.781 90.8216 251.773 93.0902 253.445 94.81L258.764 89.6538Z" fill="#FFB7A2"/>
<path d="M278.303 125.717L275.897 89.6539C274.882 90.5369 271.533 110.969 269.868 124.874C272.69 125.027 275.491 125.362 278.303 125.717Z" fill="#27D9D3"/>
<path d="M333.326 89.2377L333.935 88.1415C333.726 88.0164 333.569 87.8205 333.493 87.5895C333.417 87.3585 333.426 87.1077 333.519 86.8829C334.037 85.6954 334.585 84.5281 335.133 83.3507C335.099 83.2072 335.099 83.0578 335.133 82.9143C335.85 80.2704 336.151 77.5309 336.026 74.7943C335.792 72.6019 335.133 70.5008 334.92 68.3084C334.838 67.5269 335.742 67.2934 336.32 67.5066C336.82 67.7471 337.213 68.1624 337.427 68.6738C338.105 69.6611 338.54 70.795 338.695 71.9827C338.745 71.4726 338.872 70.973 339.071 70.5008C339.22 69.9053 339.365 69.3099 339.507 68.7144C339.716 67.7691 340.029 66.85 340.441 65.9739C340.857 65.1518 341.791 64.7762 342.258 65.3142C342.969 66.1262 342.258 67.5979 342.146 68.5419C342.035 69.4858 341.862 70.3181 341.619 71.2722C341.984 70.3892 342.735 68.8464 343.222 67.7806C343.598 66.9585 344.664 64.2789 345.841 64.6443C347.018 65.0097 346.46 66.8367 346.135 67.6893L345.212 70.176C344.938 70.917 344.633 71.8812 344.318 72.5613C344.318 72.5613 345.557 70.7546 346.176 69.7903C346.673 69.0291 347.191 67.9227 348.318 68.2577C349.038 68.481 348.987 69.5467 348.653 70.1862C347.759 71.8812 346.765 73.5052 345.729 75.0988C346.399 74.4796 347.039 73.8402 347.759 73.2413C347.91 73.1394 348.085 73.0798 348.267 73.0688C348.448 73.0578 348.629 73.0958 348.791 73.1788C348.953 73.2618 349.09 73.3867 349.187 73.5406C349.284 73.6944 349.338 73.8715 349.343 74.0533C349.352 74.2302 349.302 74.4051 349.201 74.5507L340.634 86.8626C339.796 88.8206 338.617 90.6145 337.153 92.1609C336.33 93.0237 335.011 91.7143 335.843 90.8516L335.955 90.7196C335.924 90.6747 335.896 90.6272 335.874 90.5775C335.735 90.5455 335.605 90.4847 335.491 90.399C335.377 90.3133 335.283 90.2047 335.214 90.0802H335.153C335.063 90.1409 334.964 90.1855 334.859 90.2121C334.712 90.3699 334.514 90.4713 334.3 90.4986C334.086 90.526 333.869 90.4776 333.687 90.3619C333.505 90.2462 333.37 90.0704 333.304 89.8651C333.238 89.6597 333.246 89.4378 333.326 89.2377Z" fill="#FFB7A2"/>
<path d="M339.923 72.7338C340.648 73.3096 341.219 74.0558 341.586 74.9059C341.953 75.7559 342.103 76.6834 342.025 77.6058C342.025 78.0219 341.334 78.0321 341.365 77.6058C341.442 76.7689 341.308 75.9259 340.975 75.1544C340.641 74.3829 340.119 73.7076 339.457 73.1905C339.122 72.9368 339.589 72.48 339.923 72.7338Z" fill="#42342D"/>
<path d="M340.827 71.729C341.3 70.0035 341.696 68.2577 342.014 66.4916C342.085 66.0754 342.725 66.248 342.644 66.6641C342.326 68.4235 341.93 70.1693 341.456 71.9015C341.433 71.985 341.378 72.0559 341.303 72.0987C341.228 72.1416 341.139 72.1528 341.055 72.1299C340.972 72.107 340.901 72.0519 340.858 71.9767C340.815 71.9016 340.804 71.8124 340.827 71.729V71.729Z" fill="#42342D"/>
<path d="M343.598 73.1804C344.485 71.2587 345.208 69.2656 345.76 67.2223C345.783 67.1389 345.838 67.068 345.913 67.0251C345.988 66.9823 346.077 66.9711 346.161 66.994C346.244 67.0169 346.315 67.072 346.358 67.1471C346.401 67.2223 346.412 67.3115 346.389 67.3949C345.82 69.4835 345.076 71.5207 344.166 73.4849C343.983 73.9011 343.425 73.5661 343.598 73.1804Z" fill="#42342D"/>
<path d="M344.623 75.7585C346.022 74.1452 347.206 72.3575 348.145 70.4399C348.328 70.0644 348.896 70.4399 348.713 70.7749C347.749 72.74 346.535 74.572 345.1 76.2254C344.806 76.5502 344.339 76.0833 344.623 75.7585Z" fill="#42342D"/>
<path d="M314.975 153.924C312.572 145.888 309.405 138.101 305.515 130.67L279.612 130.426C279.044 133.959 278.029 137.41 277.4 140.993C276.722 144.8 276.47 148.67 276.648 152.533C283.967 156.654 293.579 162.247 300.531 166.246L319.816 177.309C318.182 169.636 317.116 161.506 314.975 153.924Z" fill="#159E97"/>
<path d="M306.855 107.477C306.476 101.793 305.945 96.116 305.261 90.4456C302.023 86.4363 297.578 83.3406 292.696 82.691C287.813 82.0414 280.698 83.3203 277.369 87.2483C274.223 90.9937 274.75 96.3833 274.943 100.88C275.055 103.62 275.197 106.361 275.349 109.101C276.78 116.46 278.851 123.677 279.287 131.188C286.484 134.557 297.344 132.832 305.474 130.64C305.951 122.915 306.53 115.201 306.855 107.477Z" fill="#27D9D3"/>
<path d="M293.335 83.442C297.221 83.6375 300.995 84.8105 304.307 86.8524C306.824 88.4967 308.266 91.156 310.986 92.5161C314.64 94.3533 319.999 94.333 323.003 91.2372C324.625 89.4633 326.15 87.6031 327.571 85.6649C328.698 84.2236 333.326 76.7126 335.762 77.6362C338.614 78.7121 342.725 82.7112 342.867 84.995C343.009 87.2787 330.971 111.06 320.304 112.735C313.65 113.623 306.898 112.127 301.242 108.513" fill="#27D9D3"/>
<path d="M295.954 79.2704V86.081C293.276 86.9116 290.41 86.9116 287.732 86.081V79.92" fill="#FCAA97"/>
<path d="M275.4 110.37C275.4 110.37 260.571 89.1666 258.764 89.6741C256.957 90.1816 251.233 93.0135 251.659 95.3074C252.085 97.6013 263.778 131.32 279.724 129.361" fill="#27D9D3"/>
<path d="M296.106 82.153C295.572 83.4457 294.804 84.6292 293.842 85.6446C292.827 86.7916 291.366 86.416 289.782 86.5074L290.858 94.8202L298.055 84.6702L296.106 82.153Z" fill="#159E97"/>
<path d="M289.742 86.5074L286.23 94.2214L285.682 87.025L288.027 82.356C288.027 82.356 287.245 86.2942 289.742 86.5074Z" fill="#159E97"/>
<path d="M281.723 63.68C281.246 63.8018 278.232 84.0815 286.646 84.2439C295.06 84.4063 296.684 77.7885 296.938 76.1239C297.192 74.4593 294.512 69.2828 293.69 67.3543C292.868 65.4258 283.784 63.1217 281.723 63.68Z" fill="#FFB7A2"/>
<path d="M280.678 61.5789C283.215 57.0013 293.041 55.9558 299.872 62.2285C301.636 64.086 302.624 66.5481 302.632 69.1102C302.456 71.6467 301.611 74.0914 300.185 76.1965C298.759 78.3016 296.802 79.9924 294.512 81.0974C294.512 81.0974 294.512 81.0974 294.512 81.0162C294.512 80.935 294.512 80.7624 294.583 80.6406C294.654 80.5188 294.583 80.4579 294.634 80.3666C295.355 76.8242 295.192 72.3582 293.518 69.2016C291.843 66.0449 288.443 65.1416 285.144 64.5833C284.075 64.303 282.969 64.1934 281.865 64.2585L280.779 69.4655C279.975 68.3121 279.535 66.9439 279.517 65.5378C279.499 64.1317 279.903 62.7526 280.678 61.5789V61.5789Z" fill="#EDB033"/>
<path d="M312.324 64.5325C312.572 60.9647 309.881 57.8712 306.313 57.6229C302.745 57.3747 299.652 60.0657 299.404 63.6335C299.155 67.2013 301.847 70.2949 305.414 70.5431C308.982 70.7913 312.076 68.1003 312.324 64.5325Z" fill="#EDB033"/>
<path d="M280.739 67.8212H288.717L289.458 65.4258L290.148 68.3998L292.421 68.5419C292.421 68.5419 292.533 80.7929 294.279 81.067C296.025 81.341 298.471 76.0732 298.735 72.947C298.999 69.8208 297.304 63.2334 291.549 61.447C284.301 59.2546 281.074 62.1474 280.739 67.8212Z" fill="#EDB033"/>
<path d="M276.08 98.1291C276.141 97.4389 275.065 97.449 275.014 98.1291C273.918 110.015 279.125 121.22 279.501 133.004C279.501 133.695 280.597 133.695 280.566 133.004C280.14 121.22 274.953 110.005 276.08 98.1291Z" fill="#159E97"/>
<path d="M308.946 110.959C306.583 110.515 304.393 109.418 302.622 107.792C302.115 107.325 301.353 108.086 301.861 108.553C303.763 110.311 306.118 111.503 308.661 111.994C309.331 112.126 309.575 111.091 308.946 110.959Z" fill="#159E97"/>
<path d="M187.491 48.8305L223.442 68.0546C225.168 68.9783 226.71 66.3494 224.975 65.4258L189.034 46.2017C187.308 45.278 185.765 47.9069 187.501 48.8305H187.491Z" fill="#00A99D"/>
<path d="M187.491 61.0004L223.442 80.2245C225.168 81.1481 226.71 78.5193 224.975 77.5956L189.034 58.3715C187.308 57.4479 185.765 60.0767 187.501 61.0004H187.491Z" fill="#00A99D"/>
<path d="M199.267 97.1358C203.072 95.8582 204.528 89.9718 202.519 83.9881C200.51 78.0043 195.796 74.1892 191.991 75.4668C188.187 76.7443 186.731 82.6307 188.74 88.6145C190.749 94.5982 195.462 98.4133 199.267 97.1358Z" fill="#2B6E62"/>
<path d="M219.447 108.436C223.252 107.158 224.708 101.272 222.699 95.2879C220.69 89.3042 215.977 85.4891 212.172 86.7666C208.367 88.0442 206.911 93.9306 208.92 99.9143C210.929 105.898 215.642 109.713 219.447 108.436Z" fill="#2B6E62"/>
<defs>
<linearGradient id="paint0_linear_15:57" x1="93.7555" y1="162.927" x2="121.709" y2="133.654" gradientUnits="userSpaceOnUse">
<stop stop-color="#C7C7C7"/>
<stop offset="1" stop-color="#9E9E9E"/>
</linearGradient>
<linearGradient id="paint1_linear_15:57" x1="25466.8" y1="17872.1" x2="26850.5" y2="11457.1" gradientUnits="userSpaceOnUse">
<stop stop-color="#DADADA"/>
<stop offset="1" stop-color="#C7C7C7"/>
</linearGradient>
<linearGradient id="paint2_linear_15:57" x1="2251.47" y1="6640.92" x2="2770.65" y2="5655.22" gradientUnits="userSpaceOnUse">
<stop stop-color="#DD6F31"/>
<stop offset="1" stop-color="#C7C7C7"/>
</linearGradient>
</defs>
</svg>
