<svg width="406" height="306" viewBox="0 0 406 306" fill="none" xmlns="http://www.w3.org/2000/svg">
<path d="M197.032 292.491L14.6161 184.678C8.81027 181.419 3.82662 176.07 9.49032 172.548L192.566 66.9884C195.317 65.2832 199.488 64.1667 202.279 65.7907L393.769 176.974C399.575 180.344 400.621 189.763 394.784 193.143L221.108 292.318C217.457 294.44 213.315 295.572 209.093 295.602C204.87 295.633 200.713 294.56 197.032 292.491V292.491Z" fill="#DADADA"/>
<path style="mix-blend-mode:multiply" opacity="0.63" d="M265.981 239.985L237.855 254.652L249.873 262.965L277.542 246.827C275.197 245.304 268.356 241.467 265.981 239.985Z" fill="url(#paint0_linear_14:14)"/>
<path style="mix-blend-mode:multiply" opacity="0.63" d="M89.1677 171.27L66.3911 183.146L76.125 189.905L97.44 175.878C95.5216 174.65 91.0962 172.488 89.1677 171.27Z" fill="url(#paint1_linear_14:14)"/>
<path style="mix-blend-mode:multiply" opacity="0.63" d="M186.943 196.239L136.863 220.254L180.183 245.558L223.3 219.584C214.165 213.656 196.199 202.025 186.943 196.239Z" fill="url(#paint2_linear_14:14)"/>
<path d="M223.879 196.259C223.879 196.259 229.025 202.349 229.502 205.618C229.979 208.886 229.624 225.055 201.082 224.903C172.54 224.75 174.408 207.516 174.885 206.206C175.362 204.897 181.36 195.214 181.36 195.214" fill="#FA6C00"/>
<path d="M202.371 211.596C214.535 211.596 224.396 205.943 224.396 198.969C224.396 191.996 214.535 186.343 202.371 186.343C190.206 186.343 180.345 191.996 180.345 198.969C180.345 205.943 190.206 211.596 202.371 211.596Z" fill="#F7DD02"/>
<path d="M230.405 164.053C238.434 158.369 250.705 167.809 259.261 168.113C265.077 168.337 269.412 165.931 271.584 160.42C272.477 158.126 273.715 154.614 273.614 152.097C273.492 148.727 270.731 146.677 268.417 144.687C261.21 138.485 250.695 136.222 244.686 128.742C241.854 125.209 246.848 120.155 249.71 123.717C255.019 130.335 264.834 132.751 271.452 138.019C274.588 140.516 278.364 143.459 279.927 147.275C281.49 151.092 280.363 155.801 279.267 159.689C277.095 167.423 272.335 173.615 264.042 174.914C259.985 175.458 255.86 175.161 251.923 174.041C249.213 173.341 246.584 172.356 243.935 171.483C242.758 171.097 241.57 170.712 240.372 170.387C239.777 170.211 239.175 170.059 238.566 169.93C236.969 169.254 236.119 170.214 236.018 172.813C240.504 173.696 238.606 180.547 234.13 179.664C226.792 178.233 223.929 168.672 230.405 164.053Z" fill="#FA6C00"/>
<path d="M140.273 61.1121C144.922 62.3808 149.53 66.0551 153.468 68.684C157.772 71.5666 161.903 74.6623 165.963 77.8697C169.546 80.7117 164.491 85.7055 160.938 82.894C155.018 78.1099 148.744 73.7805 142.171 69.9426C140.537 69.0088 138.355 66.8062 136.538 68.7144C135.462 69.8411 135.594 72.4395 135.635 73.7894C135.866 77.3271 136.651 80.8067 137.959 84.1018C142.882 97.5607 153.691 107.721 163.811 117.384C167.12 120.55 162.096 125.565 158.787 122.408C145.297 109.528 129.92 94.3838 128.56 74.5913C128.083 67.6588 131.859 58.808 140.273 61.1121Z" fill="#FA6C00"/>
<path d="M207.72 175.432C207.72 175.432 206.826 183.947 209.658 189.185C211.106 191.941 212.755 194.588 214.591 197.102C214.591 197.102 215.342 205.618 202.036 205.618C188.729 205.618 190.972 197.396 190.972 197.396C193.345 194.315 195.004 190.746 195.831 186.946C196.658 183.146 196.631 179.21 195.753 175.421" fill="#FEC617"/>
<path d="M190.982 197.396C193.355 194.315 195.014 190.746 195.841 186.946C196.668 183.146 196.641 179.21 195.763 175.421H199.823C199.559 185.571 200.107 197.498 206.613 205.212C205.121 205.493 203.605 205.629 202.087 205.618C188.739 205.618 190.982 197.396 190.982 197.396Z" fill="#FFA407"/>
<path d="M249.69 91.4504V127.706C249.69 127.706 249.071 177.258 202.269 177.258C155.468 177.258 156.929 127.31 156.929 127.31V91.4504" fill="#FEC617"/>
<path d="M156.889 127.3V91.4504H183.715C183.492 114.795 184.801 140.678 199.955 159.222C205.176 165.533 211.518 170.825 218.661 174.833C213.36 176.501 207.827 177.32 202.269 177.258C155.437 177.248 156.889 127.3 156.889 127.3Z" fill="#FFA407"/>
<path d="M203.264 118.784C228.876 118.784 249.639 106.547 249.639 91.4504C249.639 76.3543 228.876 64.1165 203.264 64.1165C177.651 64.1165 156.889 76.3543 156.889 91.4504C156.889 106.547 177.651 118.784 203.264 118.784Z" fill="#F7DD02"/>
<path d="M202.229 112.359C223.592 112.359 240.91 102.675 240.91 90.7298C240.91 78.784 223.592 69.1001 202.229 69.1001C180.865 69.1001 163.547 78.784 163.547 90.7298C163.547 102.675 180.865 112.359 202.229 112.359Z" fill="#FA6C00"/>
<path d="M241.57 137.958C241.57 137.958 242.037 132.101 241.57 131.705C241.103 131.309 240.24 132.72 240.169 133.573C240.169 133.573 239.368 131.776 238.708 131.979C238.048 132.182 234.983 134.009 235.044 135.44C235.105 136.872 238.84 141.033 238.84 141.033" fill="#EEA7B7"/>
<path d="M298.745 125.981C298.745 125.981 295.7 123.453 296.015 122.591C296.329 121.728 298.045 123.778 298.045 123.778C298.045 123.778 297.314 120.54 298.177 120.205C299.039 119.87 302.237 119.444 302.582 120.063C302.927 120.682 302.034 125.981 302.034 125.981" fill="#EEA7B7"/>
<path d="M269.137 204.43C269.137 204.43 271.299 216.661 271.685 221.238C272.071 225.816 272.193 237.874 272.193 237.874C272.667 238.719 273.421 239.372 274.325 239.721C275.23 240.069 276.227 240.091 277.146 239.783C278.108 233.609 278.532 227.364 278.415 221.117C278.029 212.611 278.475 200.543 278.475 200.543L269.137 204.43Z" fill="#EEA7B7"/>
<path d="M280.14 201.558C280.14 201.558 282.302 208.419 284.586 209.678C286.869 210.936 308.245 216.945 314.589 224.05C314.589 224.05 319.035 223.126 318.781 220.284C318.781 220.284 313.706 215.666 308.113 211.606C302.521 207.546 291.559 206.024 291.011 205.13C290.463 204.237 289.58 192.585 289.58 192.585" fill="#EEA7B7"/>
<path d="M286.23 156.654C286.23 156.654 299.425 170.742 290.706 203.628C290.706 203.628 279.612 207.688 269.117 204.44C269.117 204.44 259.901 175.371 270.254 160.349" fill="#0D7874"/>
<path d="M277.389 131.563C277.389 131.198 278.232 129.188 276.77 128.366C275.309 127.544 269.269 127.503 269.269 128.853C269.269 130.203 270.284 131.807 269.269 132.416C268.254 133.025 263.981 132.781 262.388 134.263C260.794 135.745 250.949 149.762 248.249 148.656C245.549 147.549 241.966 136.76 241.966 136.76L237.51 139.927C237.51 139.927 238.373 153.822 244.889 156.776C251.405 159.729 266.661 146.321 266.661 146.321C266.661 146.321 270.721 156.41 270.244 160.338C269.767 164.266 286.666 161.983 286.21 156.654C285.712 150.889 287.316 141.774 287.316 141.774C287.316 141.774 301.455 147.803 305.891 143.124C310.326 138.445 302.47 124.803 302.47 124.803L298.288 125.91C298.288 125.91 301.485 136.242 299.76 136.973C298.034 137.704 289.082 130.944 284.027 130.7C278.973 130.457 277.389 131.563 277.389 131.563Z" fill="#2EAC6C"/>
<path d="M272.172 236.829C272.172 236.829 271.157 240.605 269.127 239.996C267.097 239.387 265.006 237.905 264.235 238.676C263.464 239.448 262.824 240.473 263.849 241.63C264.874 242.787 270.528 245.933 270.528 245.933L274.06 242.716C274.06 242.716 274.253 247.791 274.639 247.852C275.024 247.913 277.339 247.913 277.531 246.837C277.724 245.761 277.531 237.377 277.531 237.377L272.172 236.829Z" fill="#0D7874"/>
<path d="M314.589 224.05C314.589 224.05 316.416 225.258 315.513 226.862C314.609 228.465 311.92 230.272 312.102 231.104C312.285 231.937 313.199 233.611 314.417 233.134C315.635 232.657 317.695 231.652 318.142 230.759C318.588 229.866 318.659 224.669 319.157 224.395C319.654 224.121 322.882 227.927 323.399 227.613C323.917 227.298 325.774 225.491 325.429 225.045C325.084 224.598 318.74 220.264 318.74 220.264L316.254 218.082L312.478 222.142L314.589 224.05Z" fill="#0D7874"/>
<path d="M266.559 122.408C266.559 122.408 263.606 119.891 264.265 117.16C264.841 115.286 266.099 113.696 267.79 112.704C269.482 111.712 271.483 111.39 273.4 111.801C278.648 112.674 282.688 117.708 282.475 125.463C282.261 133.218 270.295 129.98 270.295 129.98" fill="#341A0C"/>
<path d="M266.123 117.16C266.123 117.16 265.25 129.513 267.98 130.274C270.711 131.035 272.568 127.655 272.568 127.655L273.116 125.362C273.116 125.362 275.847 122.844 273.877 122.083C273.346 121.862 272.752 121.843 272.208 122.03C271.664 122.217 271.207 122.597 270.924 123.098C270.924 123.098 270.051 120.581 268.63 121.241C267.209 121.9 266.123 117.16 266.123 117.16Z" fill="#EEA7B7"/>
<path d="M98.3942 109.03C99.0336 109.903 99.0641 113.74 98.3942 114.156C97.7243 114.572 96.963 113.821 96.963 113.821C96.963 113.821 96.5469 116.176 95.8668 116.176C95.1868 116.176 90.7411 113.994 90.9948 112.055C91.2486 110.116 93.5932 106.188 93.5932 106.188" fill="#FFBB8F"/>
<path d="M151.357 37.29C151.357 37.29 151.54 32.4485 152.149 32.3165C152.758 32.1846 153.092 33.9304 153.164 33.7274C153.235 33.5244 154.239 28.764 155.194 28.6524C156.148 28.5407 155.194 32.956 155.194 32.956C155.194 32.956 158.685 33.6259 158.888 34.986C159.091 36.3461 154.595 39.8884 154.595 39.8884" fill="#FFBB8F"/>
<path d="M135.3 165.657C135.3 165.657 135.513 169.646 137.665 171.148C139.816 172.65 142.618 173.087 143.755 175.35C144.081 176.045 144.204 176.818 144.108 177.58C144.013 178.342 143.704 179.061 143.217 179.654C140.467 180.016 137.674 179.486 135.249 178.142C130.945 175.878 128.895 174.589 127.393 174.264C125.891 173.939 127.312 165.048 127.312 165.048L135.3 165.657Z" fill="#341A0C"/>
<path d="M129.626 66.725C129.626 66.725 133.625 64.3296 135.482 61.65C137.34 58.9704 151.357 37.29 151.357 37.29C151.357 37.29 154.93 37.29 155.934 38.8632C156.939 40.4365 143.927 69.8715 139.918 72.8759C135.909 75.8803 139.918 108.614 137.888 111.618C135.858 114.623 120.491 117.637 116.481 110.918L113.436 92.4654C113.436 92.4654 99.9978 106.767 98.993 109.903C98.993 109.903 94.8518 109.761 93.5627 106.188C92.2737 102.615 113.01 74.1649 116.583 70.7342C120.156 67.3035 129.626 66.725 129.626 66.725Z" fill="#2EAC6C"/>
<path d="M133.138 60.0869C133.138 60.0869 138.05 57.9655 136.731 54.7886C135.411 51.6116 130.783 49.1046 124.551 51.8755C118.319 54.6465 119.263 57.6915 120.186 60.8684C121.11 64.0454 122.663 66.725 123.637 66.725C124.612 66.725 127.362 63.4161 127.362 63.4161" fill="#341A0C"/>
<path d="M132.762 57.1637C133.523 56.8998 133.554 69.9933 128.925 69.5975C124.297 69.2016 123.85 64.3093 123.85 64.3093C123.85 64.3093 120.673 62.462 121.729 61.1324C122.785 59.8027 124.906 61.1324 124.906 61.1324L125.698 57.1637C125.698 57.1637 127.738 58.8892 132.762 57.1637Z" fill="#FFBB8F"/>
<path d="M137.918 111.618C137.918 111.618 146.424 132.091 145.115 138.201C143.805 144.312 135.726 168.763 135.726 168.763C135.726 168.763 127.068 167.667 127.362 165.048C127.657 162.429 132.711 139.135 131.879 136.334C130.783 132.639 127.758 122.266 127.362 124.448C126.966 126.63 123.495 137.714 120.633 141.206C117.771 144.697 96.2728 161.556 96.2728 161.556C96.2728 161.556 89.9392 156.969 90.599 155.01C91.2587 153.051 106.545 142.454 109.153 136.242C111.061 131.705 116.573 110.918 116.573 110.918" fill="#0D7874"/>
<path d="M96.2119 161.556C95.6029 163.356 95.098 165.19 94.6995 167.048C94.3747 168.986 95.7145 172.65 96.7295 173.402C97.7445 174.153 97.5923 175.665 96.1916 176.629C94.7909 177.593 90.5888 177.056 89.0866 175.553C87.5844 174.051 88.7618 171.219 87.5742 168.753C86.3867 166.286 83.2605 161.577 90.6903 156.126" fill="#341A0C"/>
<path d="M178.63 119.546L182.913 132.873L193.012 139.917L185.278 145.053L186.953 157.608L178.011 147.194L168.825 148.179L170.825 137.004L163.679 124.641L173.849 128.153L178.63 119.546Z" fill="#FFAD4A"/>
<path d="M183.37 160.135L186.953 157.608L181.188 140.84L178.63 119.546L175.047 122.073L171.616 129.665L163.679 124.641L160.096 127.168" fill="#FFAD4A"/>
<path d="M175.047 122.073L179.33 135.4L189.429 142.444L181.908 147.164L183.37 160.135L174.428 149.722L165.242 150.706L167.242 139.531L160.096 127.168L170.276 130.68L175.047 122.073Z" fill="#FFE14D"/>
<path d="M217.799 125.331C217.799 125.331 220.052 137.775 207.74 137.775C207.74 137.775 217.545 140.749 217.809 147.346C217.809 147.346 220.306 138.069 227.776 138.069C227.776 138.039 217.799 137.866 217.799 125.331Z" fill="white"/>
<path d="M163.699 99.4283C163.699 99.4283 165.08 107.051 157.518 107.051C157.518 107.051 163.537 108.878 163.699 112.938C163.699 112.938 165.232 107.234 169.789 107.234C169.83 107.244 163.699 107.132 163.699 99.4283Z" fill="white"/>
<path d="M253.852 49.7136C253.852 49.7136 256.582 64.7458 241.672 64.7458C241.672 64.7458 253.537 68.3389 253.852 76.3472C253.852 76.3472 256.897 65.1112 265.93 65.1112C265.93 65.1112 253.852 64.898 253.852 49.7136Z" fill="#FEC617"/>
<path d="M202.158 28.8959C202.158 28.8959 204.411 41.35 192.099 41.35C192.099 41.35 201.904 44.3239 202.168 50.9214C202.168 50.9214 204.665 41.6443 212.135 41.6443C212.135 41.6037 202.158 41.4312 202.158 28.8959Z" fill="#FEC617"/>
<path style="mix-blend-mode:multiply" opacity="0.63" d="M129.362 171.92L90.9948 191.925L107.387 203.273L143.267 179.654C140.07 177.583 132.6 173.939 129.362 171.92Z" fill="url(#paint3_linear_14:14)"/>
<defs>
<linearGradient id="paint0_linear_14:14" x1="248.766" y1="265.168" x2="262.763" y2="242.564" gradientUnits="userSpaceOnUse">
<stop stop-color="white" stop-opacity="0"/>
<stop offset="0.99" stop-color="#DADADA"/>
</linearGradient>
<linearGradient id="paint1_linear_14:14" x1="2348.48" y1="3670.25" x2="2501.86" y2="3257.71" gradientUnits="userSpaceOnUse">
<stop stop-color="white" stop-opacity="0"/>
<stop offset="0.99" stop-color="#DADADA"/>
</linearGradient>
<linearGradient id="paint2_linear_14:14" x1="14259" y1="11965.2" x2="15047.7" y2="9732.5" gradientUnits="userSpaceOnUse">
<stop stop-color="white" stop-opacity="0"/>
<stop offset="0.99" stop-color="#DADADA"/>
</linearGradient>
<linearGradient id="paint3_linear_14:14" x1="5489.17" y1="6501.85" x2="5923.29" y2="5332.56" gradientUnits="userSpaceOnUse">
<stop stop-color="white" stop-opacity="0"/>
<stop offset="0.99" stop-color="#DADADA"/>
</linearGradient>
</defs>
</svg>
